# AST/ASF file generated using VICON BodyLanguage
# -----------------------------------------------
:version 1.10
:name VICON
:units
  mass 1.0
  length 0.45
  angle deg
:documentation
   .ast/.asf automatically generated from VICON data using
   VICON BodyBuilder and BodyLanguage model FoxedUp or BRILLIANT.MOD
:root
   order TX TY TZ RX RY RZ
   axis XYZ
   position 0 0 0  
   orientation 0 0 0 
:bonedata
  begin
     id 1 
     name lhipjoint
     direction 0.547975 -0.797114 0.253638 
     length 2.36201 
     axis 0 0 0  XYZ
  end
  begin
     id 2 
     name lfemur
     direction 0.34202 -0.939693 0  
     length 7.69075  
     axis 0 0 20  XYZ
    dof rx ry rz
    limits (-160.0 20.0)
           (-70.0 70.0)
           (-60.0 70.0)
  end
  begin
     id 3 
     name ltibia
     direction 0.34202 -0.939693 0   
     length 7.91399   
     axis 0 0 20   XYZ
    dof rx
    limits (-10.0 170.0)
  end
  begin
     id 4 
     name lfoot
     direction 0.0705293 -0.193778 0.978507   
     length 2.13618   
     axis -90 7.62852e-016 20   XYZ
    dof rx rz
    limits (-45.0 90.0)
           (-70.0 20.0)
  end
  begin
     id 5 
     name ltoes
     direction 1.53592e-011 -4.21925e-011 1   
     length 1.07518   
     axis -90 7.62852e-016 20   XYZ
    dof rx
    limits (-90.0 20.0)
  end
  begin
     id 6 
     name rhipjoint
     direction -0.57 -0.782963 0.249136   
     length 2.4047  
     axis 0 0 0  XYZ 
  end
  begin
     id 7 
     name rfemur
     direction -0.34202 -0.939693 0   
     length 7.51486   
     axis 0 0 -20   XYZ
    dof rx ry rz
    limits (-160.0 20.0)
           (-70.0 70.0)
           (-70.0 60.0)
  end
  begin
     id 8 
     name rtibia
     direction -0.34202 -0.939693 0   
     length 8.08317   
     axis 0 0 -20   XYZ
    dof rx
    limits (-10.0 170.0)
 end
 begin
     id 9 
     name rfoot
     direction -0.104954 -0.281256 0.953876   
     length 2.30343  
     axis -90 -7.62852e-016 -20   XYZ
    dof rx rz
    limits (-45.0 90.0)
           (-20.0 70.0)
  end
  begin
     id 10 
     name rtoes
     direction -1.53556e-011 -4.21922e-011 1   
     length 1.14803   
     axis -90 -7.62852e-016 -20   XYZ
    dof rx
    limits (-90.0 20.0)
  end
  begin
     id 11 
     name lowerback
     direction -0.0152855 0.99353 -0.11254   
     length 2.05311   
     axis 0 0 0   XYZ
    dof rx ry rz
    limits (-20.0 45.0)
           (-30.0 30.0)
           (-30.0 30.0)
  end
  begin
     id 12 
     name upperback
     direction -0.00157509 0.999443 -0.033332   
     length 2.06353   
     axis 0 0 0   XYZ
    dof rx ry rz
    limits (-20.0 45.0)
           (-30.0 30.0)
           (-30.0 30.0)
  end
  begin
     id 13 
     name thorax
     direction 0.00577788 0.999804 0.0189484   
     length 2.08472   
     axis 0 0 0   XYZ
    dof rx ry rz
    limits (-20.0 45.0)
           (-30.0 30.0)
           (-30.0 30.0)
  end
  begin
     id 14 
     name lowerneck
     direction -1.09301e-005 0.994719 0.10264   
     length 1.76249   
     axis 0 0 0   XYZ
    dof rx ry rz
    limits (-20.0 45.0)
           (-30.0 30.0)
           (-30.0 30.0)
  end
  begin
     id 15 
     name upperneck
     direction 0.0495018 0.988526 -0.142706   
     length 1.77897   
     axis 0 0 0   XYZ
    dof rx ry rz
    limits (-20.0 45.0)
           (-30.0 30.0)
           (-30.0 30.0)
  end
  begin
     id 16
     name head
     direction 0.0142736 0.998114 -0.0597101  
     length 1.78934  
     axis 0 0 0   XYZ
    dof rx ry rz
    limits (-20.0 45.0)
           (-30.0 30.0)
           (-30.0 30.0)
  end
  begin
     id 17 
     name lclavicle
     direction 0.918111 0.396107 -0.0130883  
     length 3.37276  
     axis 0 0 0   XYZ
    dof ry rz
    limits (-20.0 10.0)
           (0.0 20.0)
  end
  begin
     id 18 
     name lhumerus
     direction 1 -4.48975e-011 -3.26108e-027   
     length 5.34298   
     axis 180 -30 -90   XYZ
    dof rx ry rz
    limits (-60.0 90.0)
           (-90.0 90.0)
           (-90.0 90.0)
  end
  begin
     id 19
     name lradius
     direction 1 -4.48964e-011 -8.84413e-028   
     length 3.67262   
     axis 180 -30 -90   XYZ
    dof rx
    limits (-10.0 170.0)
  end
  begin
     id 20
     name lwrist
     direction 1 -4.48991e-011 -1.24264e-027   
     length 1.83631   
     axis -2.17013e-015 90 90   XYZ
    dof ry
    limits (-180.0 0.0)
 end
  begin
     id 21 
     name lhand
     direction 1 -4.48855e-011 -2.48528e-027   
     length 0.599298   
     axis 1.58582e-015 90 90   XYZ
    dof rx rz
    limits (-90.0 90.0)
           (-45.0 45.0)
  end
  begin
     id 22 
     name lfingers
     direction 1 -4.48811e-011 -4.97056e-027   
     length 0.48317   
     axis 3.17164e-015 90 90   XYZ
    dof rx
    limits (0.0 90.0)
  end
  begin
     id 23
     name lthumb
     direction 0.707107 -6.34882e-011 0.707107   
     length 0.693738   
     axis -90 45 2.85299e-015   XYZ
    dof rx rz
    limits (-45.0 45.0)
           (-45.0 45.0)
  end
  begin
     id 24 
     name rclavicle
     direction -0.920511 0.384752 -0.0680135   
     length 3.43787  
     axis 0 0 0   XYZ 
    dof ry rz
    limits (-10.0 20.0)
           (-20.0 0.0)
  end
  begin
     id 25 
     name rhumerus
     direction -0.999976 -0.00330524 0.00603274  
     length 5.5498   
     axis 180 30 90   XYZ
    dof rx ry rz
    limits (-90.0 60.0)
           (-90.0 90.0)
           (-90.0 90.0)
  end
  begin
     id 26 
     name rradius
     direction -1 -4.48967e-011 8.62438e-027   
     length 3.69401   
     axis 180 30 90   XYZ
    dof rx
    limits (-10.0 170.0)
  end
  begin
     id 27 
     name rwrist
     direction -1 -4.4897e-011 9.54866e-027   
     length 1.84701   
     axis -7.69462e-015 -90 -90   XYZ
    dof ry
    limits (-180.0 0.0)
  end
  begin
     id 28
     name rhand
     direction -1 -4.48982e-011 1.90973e-026   
     length 0.638113   
     axis -1.21857e-014 -90 -90   XYZ
    dof rx rz
    limits (-90.0 90.0)
           (-45.0 45.0)
  end
  begin
     id 29
     name rfingers
     direction -1 -4.48936e-011 3.81946e-026   
     length 0.514463   
     axis -2.43714e-014 -90 -90   XYZ
    dof rx
    limits (0.0 90.0)
  end
  begin
     id 30
     name rthumb
     direction -0.707107 -6.34942e-011 0.707107   
     length 0.738669   
     axis -90 -45 -2.85299e-015   XYZ
    dof rx rz
    limits (-45.0 45.0)
           (-45.0 45.0)
  end
:hierarchy
  begin
    root lhipjoint rhipjoint lowerback
    lhipjoint lfemur
    lfemur ltibia
    ltibia lfoot
    lfoot ltoes
    rhipjoint rfemur
    rfemur rtibia
    rtibia rfoot
    rfoot rtoes
    lowerback upperback
    upperback thorax
    thorax lowerneck lclavicle rclavicle
    lowerneck upperneck
    upperneck head
    lclavicle lhumerus
    lhumerus lradius
    lradius lwrist
    lwrist lhand lthumb
    lhand lfingers
    rclavicle rhumerus
    rhumerus rradius
    rradius rwrist
    rwrist rhand rthumb
    rhand rfingers
  end

#!OML:ASF F:\twosubjects\two\Thursday\Session 1\Rory.ASF
:FULLY-SPECIFIED
:DEGREES
132
root 19.7206 18.5302 7.59058 -1.04247 -8.97624 2.74255
lowerback 2.44921 0.381946 -2.6874
upperback 0.734999 0.44106 -0.259051
thorax -0.637607 0.221214 1.22774
lowerneck -13.9855 -3.49842 -3.84185
upperneck 38.492 -4.50542 0.498327
head 16.1965 -2.42887 0.0939818
rclavicle -1.35422e-015 -2.38542e-015
rhumerus -39.8777 24.4204 -103.63
rradius 104.917
rwrist -51.8974
rhand -32.695 10.9655
rfingers 7.12502
rthumb -5.91979 -18.9318
lclavicle -1.35422e-015 -2.38542e-015
lhumerus -42.5316 -28.1062 100.696
lradius 110.74
lwrist -7.99873
lhand -21.9347 28.4525
lfingers 7.12502
lthumb 4.4718 58.3853
rfemur -9.36297 4.72047 21.5785
rtibia 30.0847
rfoot -18.8157 -1.72461
rtoes 5.3695
lfemur -16.3212 10.3662 -18.6378
ltibia 59.8927
lfoot -8.94179 2.17666
ltoes -15.2449
133
root 19.7213 18.5319 7.73983 -0.916048 -9.13001 3.08784
lowerback 2.33896 0.352456 -2.83672
upperback 0.692446 0.400034 -0.400068
thorax -0.61777 0.20093 1.16858
lowerneck -13.7894 -3.60832 -4.18831
upperneck 38.2317 -4.64039 0.683637
head 16.0382 -2.51274 0.217938
rclavicle -2.13134e-014 3.97569e-015
rhumerus -40.0674 24.4943 -103.687
rradius 104.935
rwrist -54.1789
rhand -32.7887 10.5931
rfingers 7.12502
rthumb -6.01023 -19.3017
lclavicle -2.13134e-014 3.97569e-015
lhumerus -42.7691 -28.2676 100.965
lradius 110.722
lwrist -7.68095
lhand -20.809 28.3691
lfingers 7.12502
lthumb 5.5588 58.2762
rfemur -8.99032 4.5624 21.1185
rtibia 30.0274
rfoot -18.9108 -1.47501
rtoes 4.1443
lfemur -17.3572 9.76066 -19.0796
ltibia 59.2219
lfoot -9.80381 2.81058
ltoes -12.2503
134
root 19.7219 18.5322 7.88798 -0.864292 -9.40941 2.88089
lowerback 2.3293 0.338762 -2.50616
upperback 0.764916 0.39131 -0.363866
thorax -0.535908 0.194882 1.02108
lowerneck -13.9435 -3.74907 -4.41882
upperneck 38.1927 -4.79569 0.727971
head 16.0726 -2.60457 0.246276
rclavicle 9.3553e-015 4.77083e-015
rhumerus -40.1105 24.5744 -103.663
rradius 104.906
rwrist -56.2685
rhand -32.9497 10.7536
rfingers 7.12502
rthumb -6.16568 -19.1367
lclavicle 9.3553e-015 4.77083e-015
lhumerus -42.8457 -28.2415 101.131
lradius 110.877
lwrist -7.19261
lhand -18.831 28.5948
lfingers 7.12502
lthumb 7.46823 58.443
rfemur -8.43423 4.50335 21.2895
rtibia 29.9249
rfoot -18.9171 -1.07019
rtoes 3.56949
lfemur -18.1752 9.23419 -18.776
ltibia 58.405
lfoot -10.6138 3.17576
ltoes -7.50113
135
root 19.7225 18.5202 8.03086 -0.809278 -9.66396 2.62548
lowerback 2.55092 0.306754 -2.18205
upperback 0.643749 0.348494 -0.323696
thorax -0.781046 0.176873 0.880366
lowerneck -13.553 -3.82502 -4.6169
upperneck 37.9162 -4.94582 0.927724
head 15.8568 -2.67409 0.351538
rclavicle 9.86469e-015 3.97569e-015
rhumerus -40.7518 24.5099 -103.967
rradius 105.014
rwrist -57.8715
rhand -33.2876 10.8506
rfingers 7.12502
rthumb -6.49183 -19.0299
lclavicle 9.86469e-015 3.97569e-015
lhumerus -43.131 -28.1856 101.235
lradius 110.991
lwrist -6.71166
lhand -17.5158 28.0724
lfingers 7.12502
lthumb 8.73765 57.8716
rfemur -7.91101 4.45248 21.5173
rtibia 29.8234
rfoot -19.2611 -0.739394
rtoes 4.54415
lfemur -18.8639 8.84105 -18.4279
ltibia 57.44
lfoot -11.2782 3.36837
ltoes -4.64485
136
root 19.7238 18.515 8.16832 -0.647454 -9.87991 2.51051
lowerback 2.75395 0.284945 -1.98821
upperback 0.489662 0.316876 -0.358333
thorax -1.05045 0.164188 0.735896
lowerneck -13.1578 -3.94747 -4.81208
upperneck 37.4554 -5.19947 1.22832
head 15.5587 -2.77238 0.482382
rclavicle 2.96313e-015 1.22253e-014
rhumerus -41.173 24.395 -104.315
rradius 104.984
rwrist -59.1853
rhand -33.9038 10.1261
rfingers 7.12502
rthumb -7.08673 -19.7352
lclavicle 2.96313e-015 1.22253e-014
lhumerus -43.3663 -28.249 101.26
lradius 110.916
lwrist -6.40088
lhand -16.5972 26.9461
lfingers 7.12502
lthumb 9.62399 56.7063
rfemur -7.51848 4.38139 21.5922
rtibia 29.7455
rfoot -19.6774 -0.596957
rtoes 6.02023
lfemur -19.6755 8.45536 -18.3121
ltibia 56.3475
lfoot -12.0517 3.81231
ltoes -6.34045
137
root 19.7212 18.516 8.30741 -0.666824 -10.1032 2.63172
lowerback 2.85996 0.314384 -2.08907
upperback 0.606133 0.350809 -0.455989
thorax -0.991357 0.179952 0.690951
lowerneck -13.1131 -4.17251 -4.97998
upperneck 36.953 -5.58033 1.50155
head 15.3336 -2.91931 0.566127
rclavicle 2.08103e-015 2.48481e-015
rhumerus -40.8774 24.289 -104.336
rradius 104.766
rwrist -60.556
rhand -34.3044 9.62703
rfingers 7.12502
rthumb -7.47343 -20.221
lclavicle 2.08103e-015 2.48481e-015
lhumerus -43.2281 -28.4147 101.209
lradius 110.858
lwrist -6.16121
lhand -15.7404 25.8628
lfingers 7.12502
lthumb 10.4506 55.583
rfemur -6.95103 4.47891 21.4463
rtibia 29.6998
rfoot -20.0918 -0.545115
rtoes 6.8564
lfemur -20.2556 8.04394 -18.4563
ltibia 55.0722
lfoot -12.8968 4.62556
ltoes -9.21944
138
root 19.7194 18.5133 8.45272 -0.840236 -10.2918 2.87936
lowerback 3.00781 0.358593 -2.31533
upperback 0.791192 0.400357 -0.5589
thorax -0.886553 0.202677 0.710226
lowerneck -13.0319 -4.45186 -5.21253
upperneck 36.3559 -5.99936 1.72843
head 15.0637 -3.0984 0.635686
rclavicle -3.97569e-016 9.93923e-015
rhumerus -40.6372 24.1049 -104.198
rradius 104.606
rwrist -62.0762
rhand -34.2844 9.67172
rfingers 7.12502
rthumb -7.4541 -20.177
lclavicle -3.97569e-016 9.93923e-015
lhumerus -43.0409 -28.4518 101.226
lradius 110.845
lwrist -5.86599
lhand -14.6191 24.8676
lfingers 7.12502
lthumb 11.5321 54.5303
rfemur -6.27281 4.68441 21.1412
rtibia 29.6328
rfoot -20.8315 -0.50909
rtoes 6.76525
lfemur -20.5455 7.68015 -18.7462
ltibia 53.6094
lfoot -13.4343 5.57523
ltoes -12.7537
139
root 19.7141 18.5139 8.59876 -0.775562 -10.5743 2.85033
lowerback 3.0837 0.415834 -2.3047
upperback 0.834564 0.475209 -0.571205
thorax -0.886584 0.239696 0.688492
lowerneck -12.9848 -4.72426 -5.55392
upperneck 35.9074 -6.40632 2.02895
head 14.8881 -3.27782 0.753931
rclavicle 8.60986e-015 9.24349e-015
rhumerus -40.5384 23.8936 -104.113
rradius 104.306
rwrist -63.685
rhand -34.5934 14.1123
rfingers 7.12502
rthumb -7.75231 -15.7256
lclavicle 8.60986e-015 9.24349e-015
lhumerus -43.0566 -28.394 101.321
lradius 110.867
lwrist -5.56593
lhand -13.1982 24.1431
lfingers 7.12502
lthumb 12.9021 53.7242
rfemur -5.73781 5.13837 21.1642
rtibia 29.4766
rfoot -21.1575 -0.699543
rtoes 5.74107
lfemur -20.9997 7.40547 -18.6577
ltibia 51.9873
lfoot -13.7525 6.03704
ltoes -13.1613
140
root 19.709 18.5191 8.74004 -0.419382 -10.9188 2.77372
lowerback 3.03574 0.461414 -2.2483
upperback 0.786597 0.538041 -0.593025
thorax -0.910028 0.271577 0.632272
lowerneck -13.0736 -4.96046 -5.78582
upperneck 35.4345 -6.76912 2.30363
head 14.7287 -3.42544 0.845349
rclavicle -6.27414e-016 2.08724e-015
rhumerus -40.4388 23.6374 -104.098
rradius 103.935
rwrist -65.1078
rhand -34.1267 12.1184
rfingers 7.12502
rthumb -7.30187 -17.7356
lclavicle -6.27414e-016 2.08724e-015
lhumerus -43.0924 -28.3325 101.355
lradius 110.86
lwrist -5.49263
lhand -11.9309 23.0536
lfingers 7.12502
lthumb 14.1236 52.5536
rfemur -5.41161 5.39497 21.2331
rtibia 29.2498
rfoot -20.8902 -1.09357
rtoes 2.21065
lfemur -21.7484 7.06349 -18.4866
ltibia 50.198
lfoot -14.0062 6.22438
ltoes -8.98556
141
root 19.7109 18.5286 8.87589 -0.13052 -11.3255 2.6281
lowerback 3.13087 0.534251 -2.09833
upperback 0.706615 0.635823 -0.586552
thorax -1.04645 0.321908 0.549781
lowerneck -12.805 -5.21073 -6.06636
upperneck 34.7547 -7.15183 2.59145
head 14.4014 -3.59281 0.956787
rclavicle -1.06226e-015 2.28602e-015
rhumerus -40.4836 23.2893 -104.053
rradius 103.607
rwrist -66.2763
rhand -34.0069 9.32393
rfingers 7.12502
rthumb -7.18627 -20.5341
lclavicle -1.06226e-015 2.28602e-015
lhumerus -43.1662 -28.1043 101.392
lradius 110.834
lwrist -5.51046
lhand -10.7734 21.5287
lfingers 7.12502
lthumb 15.2388 50.9474
rfemur -5.08765 5.38506 21.3166
rtibia 29.063
rfoot -20.7862 -1.22398
rtoes -0.713868
lfemur -22.3968 6.57578 -18.2204
ltibia 48.2715
lfoot -14.1809 6.64382
ltoes -6.05039
142
root 19.7134 18.5273 9.00787 -0.0101207 -11.7451 2.1424
lowerback 3.36579 0.603484 -1.67086
upperback 0.663314 0.73795 -0.445344
thorax -1.22142 0.373422 0.448012
lowerneck -12.2064 -5.47135 -6.46528
upperneck 34.1033 -7.54793 2.90282
head 14.0315 -3.78548 1.10427
rclavicle -2.21086e-014 -4.57205e-015
rhumerus -40.6429 23.0469 -103.938
rradius 103.265
rwrist -67.4789
rhand -33.922 9.33758
rfingers 7.12502
rthumb -7.10423 -20.5232
lclavicle -2.21086e-014 -4.57205e-015
lhumerus -43.2155 -27.7644 101.425
lradius 110.802
lwrist -5.50932
lhand -9.79545 20.4837
lfingers 7.12502
lthumb 16.1806 49.8284
rfemur -4.58453 5.49337 21.786
rtibia 28.8474
rfoot -20.7308 -1.06714
rtoes -0.555126
lfemur -22.628 5.8801 -17.4599
ltibia 46.1452
lfoot -14.6828 6.98545
ltoes -4.05644
143
root 19.7189 18.5071 9.14686 0.32761 -12.0642 1.7107
lowerback 3.25386 0.584911 -1.2975
upperback 0.652773 0.730158 -0.312552
thorax -1.16652 0.368214 0.376379
lowerneck -11.778 -5.70482 -6.77085
upperneck 33.4038 -7.89162 3.14822
head 13.6768 -3.95024 1.21275
rclavicle -4.17448e-014 2.98177e-016
rhumerus -40.769 22.8341 -103.778
rradius 102.937
rwrist -68.6618
rhand -33.6241 8.36577
rfingers 7.12502
rthumb -6.81675 -21.5045
lclavicle -4.17448e-014 2.98177e-016
lhumerus -43.2382 -27.3059 101.436
lradius 110.78
lwrist -5.86341
lhand -8.89824 19.8497
lfingers 7.12502
lthumb 17.0444 49.122
rfemur -4.2398 5.41633 22.1342
rtibia 28.5047
rfoot -20.5971 -0.778926
rtoes 0.219525
lfemur -22.9571 5.06944 -16.778
ltibia 43.8495
lfoot -15.1854 7.2936
ltoes -1.30405
